<svg xmlns="http://www.w3.org/2000/svg" viewBox="0 0 600 340" width="100%" height="100%">
  <defs>
    <linearGradient id="bg-js" x1="0%" y1="0%" x2="100%" y2="100%">
      <stop offset="0%" stop-color="#1c1706" />
      <stop offset="50%" stop-color="#2e2508" />
      <stop offset="100%" stop-color="#422006" />
    </linearGradient>
    <radialGradient id="radial-js" cx="50%" cy="40%" r="60%">
      <stop offset="0%" stop-color="#eab308" stop-opacity="0.35" />
      <stop offset="100%" stop-color="#1c1706" stop-opacity="0" />
    </radialGradient>
    <filter id="shadow-js" x="-20%" y="-20%" width="140%" height="140%">
      <feDropShadow dx="0" dy="12" stdDeviation="16" flood-color="#eab308" flood-opacity="0.35" />
    </filter>
  </defs>
  <rect width="600" height="340" fill="url(#bg-js)" />
  <rect width="600" height="340" fill="url(#radial-js)" />
  <g opacity="0.07" stroke="#fef08a" stroke-width="1">
    <line x1="0" y1="40" x2="600" y2="40" /><line x1="0" y1="80" x2="600" y2="80" />
    <line x1="0" y1="120" x2="600" y2="120" /><line x1="0" y1="160" x2="600" y2="160" />
    <line x1="0" y1="200" x2="600" y2="200" /><line x1="0" y1="240" x2="600" y2="240" />
    <line x1="0" y1="280" x2="600" y2="280" />
    <line x1="60" y1="0" x2="60" y2="340" /><line x1="120" y1="0" x2="120" y2="340" />
    <line x1="180" y1="0" x2="180" y2="340" /><line x1="240" y1="0" x2="240" y2="340" />
    <line x1="300" y1="0" x2="300" y2="340" /><line x1="360" y1="0" x2="360" y2="340" />
    <line x1="420" y1="0" x2="420" y2="340" /><line x1="480" y1="0" x2="480" y2="340" />
    <line x1="540" y1="0" x2="540" y2="340" />
  </g>
  <g filter="url(#shadow-js)">
    <rect x="120" y="55" width="360" height="210" rx="16" fill="#18181b" fill-opacity="0.9" stroke="#ca8a04" stroke-width="1.5" />
    <path d="M 120 71 A 16 16 0 0 1 136 55 L 464 55 A 16 16 0 0 1 480 71 L 480 89 L 120 89 Z" fill="#27272a" />
    <circle cx="144" cy="72" r="5" fill="#ef4444" />
    <circle cx="160" cy="72" r="5" fill="#eab308" />
    <circle cx="176" cy="72" r="5" fill="#22c55e" />
    <text x="300" y="76" fill="#a1a1aa" font-family="system-ui, sans-serif" font-size="11" font-weight="600" text-anchor="middle">script.js — ES6+ Interactive</text>
    <text x="145" y="116" fill="#eab308" font-family="monospace" font-size="13" font-weight="bold">const <tspan fill="#38bdf8">boshlash</tspan> = async () =&gt; {</text>
    <text x="165" y="140" fill="#a1a1aa" font-family="monospace" font-size="12">  const kod = <tspan fill="#4ade80">&quot;JavaScript Asoslari&quot;</tspan>;</text>
    <text x="165" y="164" fill="#a1a1aa" font-family="monospace" font-size="12">  await <tspan fill="#38bdf8">dasturchi</tspan>.<tspan fill="#fef08a">organish</tspan>(kod);</text>
    <text x="165" y="188" fill="#a1a1aa" font-family="monospace" font-size="12">  return <tspan fill="#ca8a04">&quot;Amaliyot muvaffaqiyatli!&quot;</tspan>;</text>
    <text x="145" y="212" fill="#eab308" font-family="monospace" font-size="13" font-weight="bold">};</text>
    <text x="145" y="236" fill="#4ade80" font-family="monospace" font-size="12">boshlash(); // ⚡ Interaktiv veb</text>
  </g>
  <g transform="translate(480, 160)" opacity="0.9">
    <rect width="48" height="48" rx="8" fill="#f7df1e" />
    <text x="32" y="38" fill="#000000" font-family="sans-serif" font-size="24" font-weight="900">JS</text>
  </g>
</svg>